<svg t="1695263567456" class="icon" viewBox="0 0 1024 1024" version="1.1"
  xmlns="http://www.w3.org/2000/svg" p-id="8944" width="128" height="128">
  <path
    d="M137.828261 705.41843c86.854858-3.754041 179.682053-10.750208 164.153975-41.635727-11.262123-22.694884-59.894018-53.92168-107.84336-85.319114-129.343776-85.319113-134.292285-126.272288 2.559573-204.765872a614.297617 614.297617 0 0 1 165.007166-63.818697l-41.806366 99.652725c-49.997 14.333611-83.100817 44.707215-79.005499 77.128478 5.119147 41.635727 69.449758 71.156141 143.336111 65.866356s129.685052-43.512748 124.565906-85.319114a66.207632 66.207632 0 0 0-38.393601-46.754874l27.643392-128.490585c226.266289-7.166806 434.274288 96.410598 494.850858 259.88202 72.17997 193.503749-88.731878 397.245792-359.022829 454.921513-232.238627 50.167639-469.767039-23.889352-577.610398-168.249292-88.219963-118.081653-36.687219-128.319947 81.565072-133.097817z m195.722046-280.01733c-13.139143 29.691051-25.083819 60.064656-36.004665 90.779537a193.333111 193.333111 0 0 0 75.080819 13.821696 212.444593 212.444593 0 0 0 46.754875-4.948509c5.972338-21.671055 11.432761-43.512748 17.063822-65.695717l-102.382936-34.127645z m97.605066-203.571405l48.631895 16.210632c147.772705-60.235294 20.135311-189.408432 53.239127-238.040327-53.92168 17.063823-175.757374 85.319113-102.382936 221.829695z m9.043826-6.996167c-43.854024-104.430595 1.535744-157.84036 75.422097-195.210132-62.453591 51.191468-88.902516 115.010165-63.136144 199.305449l-12.285953-4.095317zM340.887751 414.82153l97.26379 32.421263 39.41743-197.940343-51.191468-17.063823z m19.623396-9.214465l31.226796 10.408932 55.457424-165.177803-17.063823-5.460424z m-113.474421 368.237294c-46.24296 0-83.783369 19.623396-83.783369 43.854025s37.54041 43.854024 83.783369 43.854024 83.783369-19.623396 83.78337-43.854024-37.54041-43.854024-83.78337-43.854025zM848.024562 546.042326c-46.24296 0-83.612731 19.623396-83.612731 43.854025s37.369772 43.854024 83.612731 43.854024 84.295284-19.452758 84.295284-43.34211-37.54041-44.365939-84.295284-44.365939z m-17.063823 139.070155c-46.24296 0-83.783369 19.623396-83.783369 43.854025s37.54041 43.854024 83.783369 43.854024 83.783369-19.623396 83.78337-43.854024-37.54041-43.854024-83.78337-43.854025z m-141.45909 112.62123c-46.24296 0-83.783369 19.623396-83.78337 43.854024s37.54041 43.854024 83.78337 43.854025 83.783369-19.623396 83.783369-43.854025-37.54041-43.854024-83.783369-43.854024z m-233.091818 45.901683c-46.24296 0-83.783369 19.623396-83.78337 43.854024s37.54041 43.854024 83.78337 43.854025S540.875753 911.720047 540.875753 887.31878s-37.369772-43.854024-83.612731-43.854024z"
    p-id="8945" data-spm-anchor-id="a313x.search_index.0.i0.48bd3a817pmTiL" class="selected"
    fill="#57a0ff"></path>
</svg>