<svg t="1710313090832" class="icon" viewBox="0 0 1024 1024" version="1.1"
  xmlns="http://www.w3.org/2000/svg" p-id="136263" width="200" height="200">
  <path
    d="M152.472624 869.080651h715.232704v44.702108c0 24.688285-20.013823 44.702108-44.702108 44.702108H197.174732c-24.688285 0-44.702108-20.013823-44.702108-44.702108v-44.702108zM688.896896 64.443731v134.106324c0 24.688285 20.013823 44.702108 44.702108 44.702108h134.106324L688.896896 64.443731z m26.821879 223.51054H304.4602c-9.874905 0-17.881253 8.005324-17.881253 17.881253 0 9.874905 8.005324 17.881253 17.881253 17.881252h411.258575c9.874905 0 17.881253-8.005324 17.881252-17.881252-0.001023-9.875928-8.006348-17.881253-17.881252-17.881253z m0 89.404216H304.4602c-9.874905 0-17.881253 8.005324-17.881253 17.881252s8.005324 17.881253 17.881253 17.881253h411.258575c9.874905 0 17.881253-8.005324 17.881252-17.881253s-8.006348-17.881253-17.881252-17.881252z m0 89.404216H304.4602c-9.874905 0-17.881253 8.005324-17.881253 17.881252 0 9.874905 8.005324 17.881253 17.881253 17.881253h411.258575c9.874905 0 17.881253-8.005324 17.881252-17.881253-0.001023-9.875928-8.006348-17.881253-17.881252-17.881252zM823.00322 64.443731c24.688285 0 44.702108 20.013823 44.702108 44.702108v447.020057H152.472624V109.145839c0-24.688285 20.013823-44.702108 44.702108-44.702108h625.828488z"
    fill="#57a0ff" p-id="136264" data-spm-anchor-id="a313x.search_index.0.i195.16683a81Jh7EzZ"
    class=""></path>
  <path
    d="M717.28341 681.555697c11.473309 0 19.892049 3.799536 25.25622 11.398608 4.619204 6.705726 6.928806 16.167215 6.928806 28.385491 0 12.367679-2.160199 21.978571-6.481621 28.832675-5.364171 8.046257-13.634532 12.069897-24.810059 12.069897-9.983375 0-17.657148-3.948939-23.021319-11.845793-3.814886-5.602601-6.102998-12.635785-6.866385-21.09955l-0.286526-6.615675v-1.787716c0-12.516058 2.979868-22.276353 8.940627-29.27986 5.364171-6.705726 12.144598-10.058077 20.340257-10.058077z m-263.742847 0c11.175527 0 19.445888 4.02364 24.810059 12.069897 4.321422 6.854105 6.481621 16.464997 6.481622 28.832675 0 12.367679-2.384303 21.978571-7.151887 28.832676-5.513574 7.30129-13.857613 10.952446-25.03314 10.952446-8.195659 0-14.975063-3.352351-20.339234-10.058077-4.768607-5.841032-7.628748-13.255908-8.582469-22.243606l-0.357134-7.036254v-1.787716c0-11.771091 2.384303-21.0095 7.151887-27.715225 5.214768-7.897877 12.888542-11.846816 23.020296-11.846816z m-80.909751-61.464887H257.522168v159.586649h118.907157v-22.351054h-92.756567v-48.278563h83.59286v-22.351054h-83.59286v-44.254924h88.957031v-22.351054z m316.266084-3.12927h-25.480324v162.714895h23.691585v-12.292977c8.046257 10.281157 19.668968 15.422248 34.867112 15.422248 16.986883 0 30.397311-6.034437 40.232306-18.104334 8.940626-11.175527 13.410428-25.628704 13.410428-43.360553 0-16.83748-4.3951-30.919197-13.187347-42.243103-9.53619-12.069897-22.574135-18.104333-39.113833-18.104334-11.622712 0-21.712511 4.652973-30.269397 13.957897l-4.151553 5.040806v-63.030545z m-130.082684 47.16009h-25.480324v71.970148c0 31.142278 13.857613 46.713928 41.572837 46.713928 12.261255 0 22.880103-4.433986 31.856546-13.300934l4.352121-4.8034v14.975063h25.480324V664.12163h-25.480324v70.629617c-2.234901 8.046257-5.959735 14.602579-11.175527 19.668968-5.215792 4.768607-10.579963 7.151887-16.092514 7.151887-8.791224 0-15.198144-2.160199-19.221783-6.481621-3.099594-3.456728-4.958942-8.535397-5.579066-15.23396l-0.23229-5.328355v-70.406536z m-101.473089-3.129271c-13.027711 0-23.427572 3.777023-31.200606 11.33107l-3.66753 4.091178v-12.292977h-23.691585v159.809729h25.480325v-60.124356c9.53619 12.665461 21.0095 18.998703 34.42095 18.998703 16.689101 0 29.727045-6.034437 39.113833-18.104334 8.791224-11.32493 13.187347-25.405623 13.187347-42.243103 0-17.73185-4.469801-32.185027-13.410428-43.360553-9.834996-12.069897-23.245424-18.105357-40.232306-18.105357z m437.18506-104.82544c9.874905 0 17.881253 8.005324 17.881253 17.881252v277.152251c0 9.874905-8.005324 17.881253-17.881253 17.881253H125.651768c-9.874905 0-17.881253-8.005324-17.881252-17.881253V574.047148c0-9.874905 8.005324-17.881253 17.881252-17.881252h768.874415z"
    fill="#73adfa" p-id="136265" data-spm-anchor-id="a313x.search_index.0.i196.16683a81Jh7EzZ"
    class=""></path>
</svg>