<svg t="1708683632328" class="icon" viewBox="0 0 1024 1024" version="1.1"
  xmlns="http://www.w3.org/2000/svg" p-id="24815" width="200" height="200">
  <path
    d="M60.884 316.739c16.27 0 29.502 13.008 29.876 29.197l0.009 0.706-0.001 406.079 0.796-0.488c136.341-82.836 269.388-73.571 392.985 27.893l2.663 2.21 0.72-0.805C589.683 669.251 719.914 656.5 870.658 741.61l2.048 1.17 1.526-386.39c0.064-16.28 13.116-29.469 29.297-29.78l0.705-0.005c16.269 0.064 29.45 13.124 29.766 29.315v0.706l-1.736 440.129c-0.095 23.975-26.934 38.096-46.727 24.584-157.922-107.812-277.416-99.556-371.453 22.057-10.782 13.944-31.218 15.575-44.073 3.518-123.916-116.232-250.78-120.84-390.984-13.656-19.47 14.884-47.46 1.28-48.027-23.023V346.642c0-16.515 13.38-29.903 29.884-29.903zM816.51 214.61a29.91 29.91 0 0 1 11.62 23.193l0.005 0.48v403.64c0 23.039-24.94 37.424-44.862 25.877-98.044-56.82-190.356-57.389-281.476-2.136l-2.761 1.692-0.6 0.362c-5.17 3.044-10.702 4.323-16.058 4.14-5.257 0.156-10.69-1.1-15.792-4.058-98.043-56.82-190.355-57.389-281.476-2.136l-2.761 1.692-0.6 0.362c-19.86 11.694-45.083-2.66-45.004-25.896 0.781-229.472 1-362.33 0.657-397.497l-0.01-1.036-0.061-4.465a29.91 29.91 0 0 1 11.363-24.014C257.487 128.88 371.27 124.65 482.56 201.948l0.026-0.017c109.208-77.276 223.005-72.992 333.925 12.68z m-335.493 28.52c-8.793 0-15.94 10.083-16.089 22.603l-0.002 0.4v312.835l0.006 0.644c0.238 12.406 7.349 22.359 16.085 22.359 8.794 0 15.94-10.083 16.09-22.602l0.002-0.4V266.132l-0.006-0.644c-0.239-12.406-7.35-22.359-16.086-22.359z"
    fill="#57a0ff" p-id="24816" data-spm-anchor-id="a313x.search_index.0.i37.16683a81m9U0ui"
    class="selected"></path>
</svg>