<svg t="1703861999230" class="icon" viewBox="0 0 1024 1024" version="1.1"
  xmlns="http://www.w3.org/2000/svg" p-id="2335" width="200" height="200">
  <path
    d="M537.6 841.387v-522.24c-5.12-112.64 51.2-158.72 153.6-174.08 76.8-15.36 158.72-15.36 245.76-25.6v670.72c-5.12-5.12-204.8-20.48-399.36 51.2z m0 0"
    fill="#57a0ff" p-id="2336"></path>
  <path
    d="M552.96 877.227c138.24-20.48 281.6-40.96 435.2-66.56v-599.04H1024v624.64c0 25.6-30.72 71.68-46.08 71.68H583.68c-10.24 0-30.72-30.72-30.72-30.72z m-61.44-35.84v-522.24c5.12-112.64-51.2-158.72-153.6-174.08-76.8-20.48-153.6-20.48-245.76-30.72v670.72s204.8-15.36 399.36 56.32z m0 0"
    fill="#57a0ff" p-id="2337"></path>
  <path
    d="M465.92 877.227c-138.24-20.48-276.48-40.96-430.08-66.56v-599.04H0v624.64c0 25.6 30.72 71.68 51.2 71.68h389.12c10.24 0 25.6-30.72 25.6-30.72z m0 0"
    fill="#57a0ff" p-id="2338"></path>
</svg>