<svg t="1695127377572" class="icon" viewBox="0 0 1024 1024" version="1.1"
  xmlns="http://www.w3.org/2000/svg" p-id="5559" width="128" height="128">
  <path
    d="M106.666667 128a21.333333 21.333333 0 0 1 21.333333-21.333333h320a21.333333 21.333333 0 0 1 21.333333 21.333333v320a21.333333 21.333333 0 0 1-21.333333 21.333333H128a21.333333 21.333333 0 0 1-21.333333-21.333333V128z m106.666666 64a21.333333 21.333333 0 0 0-21.333333 21.333333v149.333334a21.333333 21.333333 0 0 0 21.333333 21.333333h149.333334a21.333333 21.333333 0 0 0 21.333333-21.333333v-149.333334a21.333333 21.333333 0 0 0-21.333333-21.333333h-149.333334zM554.666667 576a21.333333 21.333333 0 0 1 21.333333-21.333333h320a21.333333 21.333333 0 0 1 21.333333 21.333333v320a21.333333 21.333333 0 0 1-21.333333 21.333333H576a21.333333 21.333333 0 0 1-21.333333-21.333333V576z m106.666666 64a21.333333 21.333333 0 0 0-21.333333 21.333333v149.333334a21.333333 21.333333 0 0 0 21.333333 21.333333h149.333334a21.333333 21.333333 0 0 0 21.333333-21.333333v-149.333334a21.333333 21.333333 0 0 0-21.333333-21.333333h-149.333334zM561.28 109.290667c-12.373333-1.749333-23.104 8.106667-23.104 20.608v25.002666c0 10.944 8.277333 20.032 19.050667 21.973334 133.333333 24.106667 270.058667 155.349333 284.224 281.856 1.322667 11.712 10.773333 21.269333 22.549333 21.269333h21.333333a21.333333 21.333333 0 0 0 21.333334-21.333333v-277.333334a21.333333 21.333333 0 0 0-21.333334-21.333333h-21.333333a21.333333 21.333333 0 0 0-21.333333 21.333333v31.488c0 20.650667-27.989333 30.4-42.624 15.808A423.146667 423.146667 0 0 0 561.28 109.290667zM117.333333 586.666667a21.333333 21.333333 0 0 1 21.333334-21.333334h21.333333c11.776 0 21.226667 9.6 22.378667 21.333334 13.013333 132.693333 145.749333 233.578667 279.424 259.776 10.410667 2.048 18.197333 10.965333 18.197333 21.546666v25.301334c0 12.8-11.2 22.741333-23.786667 20.501333A436.309333 436.309333 0 0 1 224.213333 792.96c-14.613333-14.677333-42.88-4.928-42.88 15.808v33.92a21.333333 21.333333 0 0 1-21.333333 21.333333h-21.333333a21.333333 21.333333 0 0 1-21.333334-21.333333v-256z"
    fill="#57a0ff" p-id="5560"></path>
</svg>