<svg t="1695048985383" class="icon" viewBox="0 0 1024 1024" version="1.1" xmlns="http://www.w3.org/2000/svg" p-id="17986" width="16" height="16"><path d="M512.016347 0a512.016347 512.016347 0 1 0 0 1024 87.586476 87.586476 0 0 0 85.363302-85.363303 73.135851 73.135851 0 0 0-22.656747-56.95246 100.467801 100.467801 0 0 1-22.885604-56.821685 87.488394 87.488394 0 0 1 85.363302-85.363302h102.396731a281.656397 281.656397 0 0 0 284.435363-284.435363c0-250.106957-227.711759-454.933112-512.147122-454.933112M199.039367 512.147122a85.363303 85.363303 0 1 1 85.363302-85.363303 87.586476 87.586476 0 0 1-85.363302 85.363303m170.628524-227.580984a85.363303 85.363303 0 1 1 85.363302-85.363303 87.488394 87.488394 0 0 1-85.363302 85.363303m284.435362 0a85.363303 85.363303 0 1 1 85.363303-85.363303 87.488394 87.488394 0 0 1-85.363303 85.363303m170.628524 227.580984a85.363303 85.363303 0 1 1 85.363303-85.363303 87.684557 87.684557 0 0 1-85.363303 85.363303" fill="#7A83F2" p-id="17987"></path></svg>