<svg t="1685696625011" class="icon" viewBox="0 0 1024 1024" version="1.1"
  xmlns="http://www.w3.org/2000/svg" p-id="9173" width="128" height="128">
  <path
    d="M59.733333 740.693333c-5.12 0-10.24-1.706667-15.36-5.12-11.946667-8.533333-13.653333-23.893333-5.12-35.84 29.013333-39.253333 39.253333-126.293333 39.253334-187.733333S68.266667 363.52 39.253333 324.266667c-8.533333-11.946667-6.826667-27.306667 5.12-35.84s27.306667-6.826667 35.84 5.12C126.293333 354.986667 129.706667 476.16 129.706667 512s-3.413333 157.013333-49.493334 218.453333c-5.12 6.826667-11.946667 10.24-20.48 10.24zM783.36 512c0-110.933333 42.666667-262.826667 69.973333-346.453333 10.24-30.72-11.946667-61.44-44.373333-61.44H215.04C184.32 105.813333 162.133333 136.533333 170.666667 165.546667c27.306667 83.626667 69.973333 233.813333 69.973333 346.453333S197.973333 774.826667 170.666667 858.453333c-10.24 30.72 11.946667 61.44 44.373333 61.44h593.92c30.72 0 52.906667-30.72 44.373333-61.44-27.306667-83.626667-69.973333-235.52-69.973333-346.453333zM465.92 718.506667H375.466667c-13.653333 0-25.6-11.946667-25.6-25.6s11.946667-25.6 25.6-25.6h90.453333c13.653333 0 25.6 11.946667 25.6 25.6s-10.24 25.6-25.6 25.6zM648.533333 537.6H375.466667c-13.653333 0-25.6-11.946667-25.6-25.6s11.946667-25.6 25.6-25.6h273.066666c13.653333 0 25.6 11.946667 25.6 25.6s-11.946667 25.6-25.6 25.6z m0-192.853333H375.466667c-13.653333 0-25.6-11.946667-25.6-25.6s11.946667-25.6 25.6-25.6h273.066666c13.653333 0 25.6 11.946667 25.6 25.6s-11.946667 25.6-25.6 25.6zM964.266667 740.693333c-8.533333 0-18.773333-5.12-22.186667-13.653333-32.426667-64.853333-47.786667-134.826667-47.786667-215.04 0-35.84 3.413333-157.013333 51.2-218.453333 8.533333-11.946667 23.893333-13.653333 35.84-5.12 11.946667 8.533333 13.653333 23.893333 5.12 35.84-29.013333 39.253333-40.96 126.293333-40.96 187.733333 0 73.386667 13.653333 134.826667 42.666667 192.853333 6.826667 11.946667 1.706667 27.306667-11.946667 34.133334-3.413333 1.706667-8.533333 1.706667-11.946666 1.706666z"
    fill="#57a0ff" p-id="9174"></path>
</svg>