<svg t="1694965989415" class="icon" viewBox="0 0 1024 1024" version="1.1" xmlns="http://www.w3.org/2000/svg" p-id="5521" width="16" height="16"><path d="M853.333333 128H170.666667c-25.6 0-42.666667 17.066667-42.666667 42.666667v384h85.333333V213.333333h597.333334v341.333334h85.333333V170.666667c0-25.6-17.066667-42.666667-42.666667-42.666667z" fill="#1296db" p-id="5522"></path><path d="M725.333333 597.333333c-29.866667 0-59.733333 8.533333-85.333333 25.6l-55.466667-55.466666 162.133334-162.133334L686.933333 341.333333l-162.133333 162.133334L358.4 341.333333 298.666667 401.066667l162.133333 162.133333-64 64c-25.6-17.066667-59.733333-29.866667-98.133333-29.866667-93.866667 0-170.666667 76.8-170.666667 170.666667s76.8 170.666667 170.666667 170.666667 170.666667-76.8 170.666666-170.666667c0-25.6-4.266667-51.2-17.066666-72.533333l68.266666-68.266667 55.466667 55.466667c-17.066667 25.6-25.6 55.466667-25.6 85.333333 0 93.866667 76.8 170.666667 170.666667 170.666667s170.666667-76.8 170.666666-170.666667-72.533333-170.666667-166.4-170.666667zM298.666667 853.333333c-46.933333 0-85.333333-38.4-85.333334-85.333333s38.4-85.333333 85.333334-85.333333 85.333333 38.4 85.333333 85.333333-38.4 85.333333-85.333333 85.333333z m426.666666 0c-46.933333 0-85.333333-38.4-85.333333-85.333333s38.4-85.333333 85.333333-85.333333 85.333333 38.4 85.333334 85.333333-38.4 85.333333-85.333334 85.333333z" fill="#1296db" p-id="5523"></path></svg>