<svg t="1697706407295" class="icon" viewBox="0 0 1024 1024" version="1.1"
  xmlns="http://www.w3.org/2000/svg" p-id="2941" width="128" height="128">
  <path
    d="M512 800a192 192 0 0 0 192-192c0-106.048-53.952 0-160 0s-224-106.048-224 0a192 192 0 0 0 192 192z"
    fill="#CCD9FF" p-id="2942"></path>
  <path
    d="M512 64a133.536 133.536 0 0 1 109.12 56.384l22.912 32.864 15.456 22.624 23.264 34.848 15.424 23.68 7.648 11.936 15.136 24.096 7.456 12.096 14.656 24.256q7.2 12.16 14.24 24.32l13.696 24.224C824.704 452.064 864 545.504 864 611.808a352 352 0 0 1-704 0c0-66.304 39.296-159.744 92.992-256.48l13.696-24.256q7.008-12.128 14.24-24.288l14.656-24.256 15.008-24.16c2.496-4.032 5.056-8 7.584-12.032l15.36-23.84 7.712-11.776 23.264-34.848 15.456-22.624 22.912-32.864A133.568 133.568 0 0 1 512 64z m0 64a69.664 69.664 0 0 0-56.832 29.248l-17.664 25.28-17.12 24.96-16.512 24.576-16 24.16-15.328 23.744-14.656 23.328-14.016 22.816-13.344 22.4-12.8 21.824-6.08 10.72-11.52 20.96c-3.776 6.912-7.36 13.696-10.88 20.416l-10.048 19.776-9.312 19.2-4.352 9.312-8.096 18.144-7.264 17.408a304 304 0 0 0-26.368 105.6 288 288 0 0 0 576 0 394.208 394.208 0 0 0-46.08-150.4l-9.28-19.2-10.112-19.808-5.312-10.112-11.2-20.672c-3.84-7.008-7.84-14.08-11.936-21.28l-12.8-21.824-13.344-22.4-14.016-22.848-7.264-11.584-15.008-23.552-15.616-23.968-16.224-24.384-8.32-12.32-17.152-24.96q-8.672-12.544-17.664-25.28A69.568 69.568 0 0 0 512 128z"
    fill="#57a0ff" p-id="2943" data-spm-anchor-id="a313x.manage_type_mylikes.0.i36.10443a813FLl0V"
    class="selected"></path>
  <path
    d="M127.488 448a70.016 70.016 0 0 1-64-74.624 278.048 278.048 0 0 1 44.16-105.28 22.4 22.4 0 0 1 39.68 0 278.4 278.4 0 0 1 44.16 105.28 70.016 70.016 0 0 1-64 74.624z m688-128a83.84 83.84 0 0 1-80-87.04c0-30.4 30.016-83.584 55.2-122.88a28.8 28.8 0 0 1 49.6 0c25.184 39.296 55.2 92.48 55.2 122.88a83.84 83.84 0 0 1-80 87.04z"
    fill="#FE9C23" p-id="2944"></path>
  <path
    d="M544 608a180.256 180.256 0 0 0 68.608-14.432l8.864-3.84 8.416-3.968 19.2-9.824 13.248-6.944 5.952-2.88 5.472-2.336c20.16-7.872 30.336-1.792 30.336 44.224a192 192 0 0 1-384 0c0-50.112 26.368-52.864 65.376-41.824l9.216 2.784 9.6 3.2 47.424 16.736 5.6 1.92 17.024 5.344 11.52 3.2 11.616 2.88A213.792 213.792 0 0 0 544 608z m-186.56-15.072h-4.832c-0.416 0-0.64 0.32-0.736 0.928v1.888l0.224 12.32a160 160 0 0 0 320 0l-0.16-7.936-24.96 13.024a210.336 210.336 0 0 1-137.248 24.096 400 400 0 0 1-70.72-18.816l-40.64-14.272-19.2-6.4-5.504-1.664-6.4-1.696-3.52-0.704-3.2-0.416z"
    fill="#57a0ff" p-id="2945" data-spm-anchor-id="a313x.manage_type_mylikes.0.i35.10443a813FLl0V"
    class="selected"></path>
</svg>