<svg t="1699067906309" class="icon" viewBox="0 0 1024 1024" version="1.1"
  xmlns="http://www.w3.org/2000/svg" p-id="5681" width="128" height="128">
  <path
    d="M977.454552 418.909094H744.724369c-76.985455 0-139.636365-62.65091-139.636365-139.636365V46.542546C605.088004 20.856 625.90255 0 651.639277 0S698.181823 20.856 698.181823 46.542546V279.272729c0 25.645091 20.856 46.542546 46.542546 46.542546H977.454552c25.738909 0 46.542546 20.856 46.542546 46.551273 0 25.686546-20.803637 46.542546-46.542546 46.542546z m0 0M651.639277 1023.997098c-25.738909 0-46.551273-20.847273-46.551273-46.542546V744.724369c0-76.985455 62.65091-139.636365 139.636365-139.636365H977.454552c25.738909 0 46.542546 20.856 46.542546 46.551273 0 25.686546-20.803637 46.542546-46.542546 46.542546H744.724369C719.037823 698.181823 698.181823 719.079278 698.181823 744.724369V977.454552c0 25.695273-20.803637 46.542546-46.542546 46.542546z m0 0M279.272729 418.909094H46.542546C20.803637 418.909094 0 398.053094 0 372.366548c0-25.695273 20.803637-46.551273 46.542546-46.551273H279.272729c25.695273 0 46.542546-20.897455 46.542546-46.542546V46.542546C325.815275 20.856 346.629821 0 372.366548 0S418.909094 20.856 418.909094 46.542546V279.272729c0 76.985455-62.65091 139.636365-139.636365 139.636365z m0 0M372.366548 1023.997098c-25.738909 0-46.551273-20.847273-46.551273-46.542546V744.724369c0-25.645091-20.847273-46.542546-46.542546-46.542546H46.542546C20.803637 698.181823 0 677.325823 0 651.639277c0-25.695273 20.803637-46.551273 46.542546-46.551273H279.272729c76.985455 0 139.636365 62.65091 139.636365 139.636365V977.454552c0 25.695273-20.803637 46.542546-46.542546 46.542546z m0 0"
    p-id="5682" fill="#a5b4e6"></path>
</svg>