<svg t="1710312558482" class="icon" viewBox="0 0 1024 1024" version="1.1"
  xmlns="http://www.w3.org/2000/svg" p-id="114320"
  data-spm-anchor-id="a313x.search_index.0.i141.16683a81Jh7EzZ" width="200" height="200">
  <path
    d="M613.711872 410.462208c-36.737024-18.753536-92.039168-12.734464-92.039168-12.734464s-18.092032-18.120704-33.59744-35.608576c-15.538176-17.461248-26.482688-42.73152-26.482688-42.73152 37.588992-107.76576 11.79648-128.690176-10.3936-126.216192-17.4592 1.951744-34.94912 22.355968-32.995328 51.47648 1.921024 29.120512 24.250368 80.596992 24.250368 80.596992s-10.665984 30.109696-22.325248 53.153792c-11.655168 23.07072-33.875968 50.239488-33.875968 50.239488s-55.187456 11.19232-80.683008 40.31488c-29.56288 33.798144-3.878912 62.14656 29.126656 51.478528 33.021952-10.7008 67.424256-76.777472 67.424256-76.777472s32.557056-13.312 60.52864-17.655808c29.612032-4.616192 47.489024-5.031936 47.489024-5.031936s29.396992 50.927616 76.969984 61.597696c47.529984 10.643456 66.940928-51.478528 26.60352-72.101888z m-265.91232 77.408256c-8.994816 10.452992-23.322624 17.96096-30.109696 14.08-4.042752-2.304-2.197504-12.621824 10.91584-24.99584 13.11744-12.374016 41.99424-20.86912 41.99424-20.86912s-15.509504 23.31648-22.800384 31.78496z m89.06752-246.771712c-1.210368-26.56256 15.620096-27.195392 15.620096-27.195392 15.86176 4.206592 9.486336 34.455552 9.099264 44.685312-0.385024 10.19904-11.051008 36.241408-11.051008 36.241408s-12.838912-35.497984-13.668352-53.731328z m20.404224 166.17472c-11.190272 2.308096-40.065024 9.459712-40.065024 9.459712s9.601024-11.163648 20.404224-30.826496c10.805248-19.662848 15.837184-38.801408 15.837184-38.801408s15.179776 24.940544 20.871168 32.53248c5.664768 7.561216 19.519488 23.072768 19.519488 23.072768-6.477824 0.354304-23.697408 1.8944-36.56704 4.562944z m154.37824 42.89536c-3.545088 10.340352-20.3776 12.623872-30.111744 5.169152-10.862592-8.333312-41.025536-37.12-41.025536-37.12s15.40096 0.68608 30.685184 2.142208c15.290368 1.488896 46.774272 11.493376 40.452096 29.80864z"
    p-id="114321" data-spm-anchor-id="a313x.search_index.0.i138.16683a81Jh7EzZ" class="selected"
    fill="#57a0ff"></path>
  <path
    d="M405.131264 635.244544c-9.826304-7.503872-22.593536-9.220096-38.301696-9.220096h-18.817024v85.864448h18.915328c16.480256 0 27.365376-1.992704 36.796416-10.139648 9.392128-8.1408 14.065664-19.136512 14.065664-33.011712 0.002048-13.410304-2.861056-25.9584-12.658688-33.492992zM223.059968 620.72832h-13.975552v43.200512h13.676544c18.561024 0 27.828224-7.299072 27.828224-21.856256-0.006144-14.256128-9.181184-21.344256-27.529216-21.344256z"
    fill="#57a0ff" p-id="114322" data-spm-anchor-id="a313x.search_index.0.i140.16683a81Jh7EzZ"
    class="selected"></path>
  <path
    d="M934.893568 305.48992L718.348288 88.940544l-7.172096-7.172096H243.273728c-37.289984 0-67.405824 30.11584-67.405824 67.403776v397.25056H133.56032a51.412992 51.412992 0 0 0-51.628032 51.628032v149.147648a51.412992 51.412992 0 0 0 51.628032 51.628032h42.307584v75.999232c0 37.28384 30.11584 67.403776 67.405824 67.403776h631.390208c37.287936 0 67.401728-30.119936 67.401728-67.403776V312.659968l-7.172096-7.170048zM225.308672 692.703232h-16.224256v51.607552H177.522688v-148.068352h50.946048c36.849664 0 55.259136 15.616 55.259136 46.848 0 15.159296-5.562368 27.312128-16.683008 36.452352-11.112448 9.177088-25.02656 13.520896-41.736192 13.160448z m645.052416 160.616448c0 8.603648-8.599552 17.2032-17.207296 17.2032H264.777728c-8.605696 0-17.205248-7.168-17.205248-17.2032v-54.491136h347.953152a51.410944 51.410944 0 0 0 51.623936-51.628032v-149.147648a51.410944 51.410944 0 0 0-51.623936-51.628032H247.57248V170.678272c0-8.603648 7.168-17.209344 17.205248-17.209344h389.040128v127.639552c0 37.287936 30.11584 67.403776 67.39968 67.403776h149.143552V853.31968z m-554.735616-110.768128v-148.068352h51.156992c52.588544 0 78.893056 24.055808 78.893056 72.175616 0 22.87616-7.380992 41.224192-22.085632 55.107584-14.733312 13.856768-33.724416 20.779008-56.987648 20.779008h-50.978816v0.006144z m242.067456-82.448384v25.819136h-48.572416v58.4192h-31.531008V596.2752h84.332544v25.792512h-52.801536v38.03136h48.572416v0.004096z"
    fill="#57a0ff" p-id="114323" data-spm-anchor-id="a313x.search_index.0.i137.16683a81Jh7EzZ"
    class="selected"></path>
</svg>