<svg t="1710080328981" class="icon" viewBox="0 0 1024 1024" version="1.1" xmlns="http://www.w3.org/2000/svg" p-id="18108" width="200" height="200"><path d="M857.07681185 73.83779556H299.46254222c-51.25157925 0-92.89121185 41.63963259-92.89121186 92.89121186v92.90334814h-61.93152c-34.17581037 0-61.9436563 27.75570963-61.94365628 61.93152v371.81970963c0 34.16367408 27.76784592 61.9193837 61.94365628 61.9193837h61.93152v92.89121186c0 51.26371555 41.65176889 92.90334815 92.89121186 92.90334814h557.61426963c51.25157925 0 92.89121185-41.65176889 92.89121185-92.89121185V166.72900742c0.12136297-51.26371555-41.63963259-92.89121185-92.89121185-92.89121186z m-664.68067555 362.38980741h48.88500148l31.60291555 113.57146073h6.91768889l35.38944-113.57146073h41.80954074l35.21953185 113.72923259h7.57304889l31.77282371-113.72923259h49.04277333l-49.04277333 162.28655407H362.1101037l-23.70218667-85.25748148h-6.59000888l-23.37450667 84.92980148h-67.64771556l-48.39954962-161.95887407zM888.0365037 848.30340742c-0.0121363 17.10004148-13.85965037 30.94755555-30.95969185 30.95969184H299.46254222c-17.10004148-0.0121363-30.94755555-13.87178667-30.95969186-30.95969184v-92.89121186h247.83530667c34.16367408 0 61.93152-27.76784592 61.93152-61.93152V631.54915556H795.13315555c17.10004148-0.0121363 30.95969185-13.87178667 30.97182815-30.97182814-0.02427259-17.10004148-13.87178667-30.94755555-30.97182815-30.95969186H578.26967703v-61.93152H795.13315555c17.10004148-0.0121363 30.95969185-13.87178667 30.97182815-30.97182814-0.0121363-17.10004148-13.87178667-30.94755555-30.97182815-30.97182816H578.26967703v-61.93152H795.13315555c17.10004148-0.0121363 30.95969185-13.87178667 30.97182815-30.95969184-0.0121363-17.10004148-13.87178667-30.95969185-30.97182815-30.97182816H578.26967703c0-34.17581037-27.77998222-61.93152-61.93152-61.93152H268.50285036v-92.89121184c0.0121363-17.10004148 13.87178667-30.94755555 30.95969186-30.97182816h557.61426963c17.08790518 0.0121363 30.94755555 13.87178667 30.95969185 30.97182816V848.30340742z m0 0" p-id="18109" fill="#57A0FF"></path></svg>
