<svg t="1710311866791" class="icon" viewBox="0 0 1024 1024" version="1.1"
  xmlns="http://www.w3.org/2000/svg" p-id="87317" width="200" height="200">
  <path
    d="M862.278223 64.844867 287.963992 64.844867c-52.79032 0-95.681176 42.893926-95.681176 95.684246l0 95.681176-63.788815 0c-35.19457 0-63.787792 28.593222-63.787792 63.788815l0 382.954949c0 35.192523 28.593222 63.782675 63.787792 63.782675l63.788815 0 0 95.685269c0 52.788274 42.890856 95.684246 95.681176 95.684246l574.314231 0c52.78725 0 95.684246-42.895973 95.684246-95.684246L957.962469 160.529113C958.069917 107.73777 915.065474 64.844867 862.278223 64.844867zM177.68433 438.105013l50.348712 0 32.549324 116.973108 7.120165 0 36.44812-116.973108 43.059702 0L383.487579 555.246967l7.797593 0 32.718169-117.141954 50.51858 0-50.51858 167.151951-71.539336 0-24.410969-87.812975-6.780427 0-24.072255 87.47426-69.674872 0L177.68433 438.105013zM894.169561 862.531492c0 17.594727-14.295588 31.890314-31.891338 31.890314L287.963992 894.421806c-17.59575 0-31.894408-14.295588-31.894408-31.890314l0-95.686293 255.263731 0c35.1915 0 63.788815-28.590152 63.788815-63.781652l0-63.792908 223.3683 0c17.594727 0 31.896454-14.295588 31.896454-31.893384 0-17.59575-14.301727-31.891338-31.896454-31.891338L575.121108 575.485917l0-63.791885 223.3683 0c17.594727 0 31.896454-14.296611 31.896454-31.892361 0-17.59575-14.301727-31.895431-31.896454-31.895431L575.121108 447.90624l0-63.788815 223.3683 0c17.594727 0 31.896454-14.297634 31.896454-31.894408 0-17.59575-14.301727-31.893384-31.896454-31.893384L575.121108 320.329633c0-35.19457-28.597315-63.787792-63.788815-63.787792l-255.263731 0 0-95.681176c0-17.59882 14.298658-31.896454 31.894408-31.896454l574.314231 0c17.59575 0 31.891338 14.297634 31.891338 31.896454L894.168538 862.531492z"
    fill="#57a0ff" p-id="87318" data-spm-anchor-id="a313x.search_index.0.i104.16683a81Jh7EzZ"
    class="selected"></path>
</svg>